<svg id="Coffee_" data-name="Coffee " xmlns="http://www.w3.org/2000/svg" width="109.688" height="109.688" viewBox="0 0 109.688 109.688">
  <path id="Path_25846" data-name="Path 25846" d="M107.545,44.239H89.978V39.7a2.142,2.142,0,0,0-2.142-2.142H41.561a2.142,2.142,0,1,0,0,4.285H85.694V58.271A40.818,40.818,0,0,1,65.552,93.405H24.427A40.817,40.817,0,0,1,4.285,58.271V41.847H18.638a2.142,2.142,0,0,0,0-4.285H2.142A2.142,2.142,0,0,0,0,39.7V58.271A44.914,44.914,0,0,0,16.895,93.406H2.142A2.142,2.142,0,0,0,0,95.548a14.155,14.155,0,0,0,14.139,14.139H80.98A14.155,14.155,0,0,0,95.12,95.548a2.142,2.142,0,0,0-2.142-2.142H73.083A45.248,45.248,0,0,0,83,82.337H89.05A20.661,20.661,0,0,0,109.688,61.7V46.381A2.142,2.142,0,0,0,107.545,44.239ZM90.6,97.69a9.872,9.872,0,0,1-9.62,7.712H14.139a9.872,9.872,0,0,1-9.62-7.712Zm-.622-39.419V57.093h6.855V61.7a7.793,7.793,0,0,1-7.784,7.784h-.487A45.1,45.1,0,0,0,89.978,58.271ZM105.4,61.7A16.372,16.372,0,0,1,89.05,78.052H85.4a44.731,44.731,0,0,0,1.829-4.285H89.05A12.082,12.082,0,0,0,101.118,61.7V54.951a2.142,2.142,0,0,0-2.142-2.142h-9V48.524H105.4ZM47.035,11.856l-1.115-1.4a5.584,5.584,0,0,1-.006-6.983A2.142,2.142,0,0,0,42.558.81a9.85,9.85,0,0,0,.01,12.316l1.115,1.4a7.3,7.3,0,0,1,.008,9.125L42.549,25.09A2.142,2.142,0,1,0,45.9,27.754l1.142-1.439a11.564,11.564,0,0,0-.012-14.458ZM58.91,16.673l-1.115-1.4a5.584,5.584,0,0,1-.006-6.983,2.142,2.142,0,0,0-3.356-2.664,9.85,9.85,0,0,0,.01,12.316l1.115,1.4a7.3,7.3,0,0,1,.007,9.125l-1.142,1.439A2.142,2.142,0,1,0,57.78,32.57l1.142-1.439a11.564,11.564,0,0,0-.012-14.458Zm-23.75,0-1.115-1.4a5.585,5.585,0,0,1-.006-6.983,2.142,2.142,0,0,0-3.356-2.664,9.851,9.851,0,0,0,.011,12.316l1.115,1.4a7.3,7.3,0,0,1,.008,9.125l-1.142,1.439a2.142,2.142,0,1,0,3.356,2.664l1.143-1.439a11.564,11.564,0,0,0-.012-14.458Z" transform="translate(0 0)" fill="#56878b"/>
  <path id="Path_25847" data-name="Path 25847" d="M136.867,175.958a2.144,2.144,0,1,0,.628,1.515A2.159,2.159,0,0,0,136.867,175.958Zm45.358,17.94a2.142,2.142,0,0,0-2.142,2.142,30.7,30.7,0,0,1-8.85,21.441,2.142,2.142,0,1,0,3.043,3.016,35.011,35.011,0,0,0,10.091-24.457A2.142,2.142,0,0,0,182.225,193.9Zm-14.593,29.4a2.142,2.142,0,0,0-2.919-.813l-.049.028a2.142,2.142,0,0,0,2.105,3.732l.049-.028A2.142,2.142,0,0,0,167.632,223.3Z" transform="translate(-104.672 -137.769)" fill="#56878b"/>
</svg>
