<svg xmlns="http://www.w3.org/2000/svg" width="96.263" height="95.09" viewBox="0 0 96.263 95.09">
  <g id="Nuts_butter" data-name="Nuts butter" transform="translate(-12 -8.064)">
    <circle id="Ellipse_1631" data-name="Ellipse 1631" cx="1.731" cy="1.731" r="1.731" transform="translate(25.844 28.775)" fill="#56878b"/>
    <circle id="Ellipse_1632" data-name="Ellipse 1632" cx="1.731" cy="1.731" r="1.731" transform="translate(74.3 25.314)" fill="#56878b"/>
    <circle id="Ellipse_1633" data-name="Ellipse 1633" cx="1.731" cy="1.731" r="1.731" transform="translate(67.378 73.77)" fill="#56878b"/>
    <circle id="Ellipse_1634" data-name="Ellipse 1634" cx="1.731" cy="1.731" r="1.731" transform="translate(77.761 84.153)" fill="#56878b"/>
    <circle id="Ellipse_1635" data-name="Ellipse 1635" cx="1.731" cy="1.731" r="1.731" transform="translate(63.917 91.075)" fill="#56878b"/>
    <path id="Path_25856" data-name="Path 25856" d="M106.064,81.436,90.307,66.726c.3-9.812.658-21.831.658-23.622a15.765,15.765,0,0,1,.822-3.375,16.787,16.787,0,0,0,.969-4.4c0-5.192,0-13.914-10.816-21.632-10.539-7.511-49.13-7.5-59.4,0C12,21.446,12,30.558,12,36.009a13.619,13.619,0,0,0,1,4.015,13.455,13.455,0,0,1,.8,2.881c0,11.664,1.082,40.443,1.54,52.28a8.289,8.289,0,0,0,8.307,7.969H81.118a8.281,8.281,0,0,0,8.3-7.969c0-.286.156-4.274.329-9.466l5.849,6.273a7.434,7.434,0,0,0,10.47-10.556ZM85.955,95.047a4.82,4.82,0,0,1-4.837,4.681H23.647A4.828,4.828,0,0,1,18.8,95.081c-.459-11.811-1.54-40.538-1.54-52.141a13.559,13.559,0,0,0-1-4.015,12.979,12.979,0,0,1-.8-2.916c0-5.408,0-12.806,9.12-19.477s46.015-6.645,55.378,0,9.362,13.68,9.362,18.8a15.938,15.938,0,0,1-.865,3.383,16.665,16.665,0,0,0-.969,4.4c0,1.281-.2,8.35-.562,20.481L72.985,50.615c1.6-6.342-.138-12.114-5.192-17.15-7.182-7.173-19.538-10.877-25.327-5.079a9.276,9.276,0,0,0-2.059,3.167C31.7,35.317,27.488,42.62,27.912,53.3c.216,5.494,1.194,27.559,1.393,32.655A5.131,5.131,0,0,0,34.5,91.075H52.668c2.9,0,6.2-2.284,6.922-6.645.588-3.643-.312-5.356-2.328-14.4-.96-4.326-1.41-6.386,1.557-10.643a17.764,17.764,0,0,0,5.936-.5L86.414,82.128c-.234,6.792-.441,12.572-.459,12.919ZM53.862,70.819c2.051,9.163,2.743,10.236,2.267,13.057-.476,2.959-2.492,3.738-3.461,3.738H34.5a1.731,1.731,0,0,1-1.731-1.8c-.208-5.1-1.185-27.248-1.4-32.655-.329-8.263,2.388-14,8.272-17.357-.13,6.256,3.5,13.464,7.943,17.9a19.607,19.607,0,0,0,7.588,4.906c-2.942,4.776-2.276,7.831-1.307,12.174Zm49.8,18.759a3.972,3.972,0,0,1-5.581,0L66.512,55.754a1.731,1.731,0,0,0-1.731-.476c-5.512,1.731-10.331.381-14.71-4.024-5.079-5.079-9.656-15.852-5.079-20.429,4.214-4.257,14.6-.7,20.377,5.079,4.4,4.4,5.719,9.224,4.024,14.71a1.731,1.731,0,0,0,.476,1.731l33.789,31.5a3.989,3.989,0,0,1,0,5.7Z" transform="translate(0 0)" fill="#56878b"/>
    <path id="Path_25857" data-name="Path 25857" d="M68.271,54.052a5.973,5.973,0,0,1-6.412-1.731,1.732,1.732,0,0,0-2.449,2.449,9.423,9.423,0,0,0,9.873,2.6,1.733,1.733,0,0,0-1.012-3.314Z" transform="translate(-6.319 -5.894)" fill="#56878b"/>
  </g>
</svg>
