<svg xmlns="http://www.w3.org/2000/svg" width="123.529" height="111.27" viewBox="0 0 123.529 111.27">
  <g id="Seeds_" data-name="Seeds " transform="translate(-18.169 -33.146)">
    <path id="Path_25848" data-name="Path 25848" d="M52.022,157.4a4.543,4.543,0,0,0-2.111-.535,4.688,4.688,0,0,0-3.67,1.89c-1.246,1.505-5.941,4.564-8.752,6.4q-.573.366-1.16.709c-3.247,1.928-7.694,4.568-10.744,14.777-2.98,9.978,1.835,15.606,5.15,17.358a9.866,9.866,0,0,0,4.624,1.089c2.965,0,7.469-1.2,12.095-6.89,6.717-8.271,6.393-13.433,6.156-17.2-.03-.482-.059-.937-.068-1.362-.07-3.348-.187-8.951.354-10.828,1-3.455-.978-4.928-1.874-5.4Zm-1.075,4.551c-.62,2.148-.578,6.78-.474,11.748.01.484.041.97.073,1.485.217,3.446.486,7.734-5.475,15.074-3.864,4.757-7.414,5.755-9.711,5.755h0a6.873,6.873,0,0,1-3.189-.734c-2.487-1.314-6.053-5.693-3.642-13.765,2.707-9.06,6.4-11.253,9.37-13.016.443-.263.862-.512,1.273-.779,4.159-2.71,8.01-5.285,9.436-7.007a1.774,1.774,0,0,1,1.306-.778,1.479,1.479,0,0,1,.677.179c.27.143.771.408.359,1.837Z" transform="translate(-2.864 -54.667)" fill="#56878b"/>
    <path id="Path_25849" data-name="Path 25849" d="M46.3,148.683c-.46.3-.926.576-1.379.845-2.633,1.563-5.617,3.335-7.975,11.227l2.941.878c2.015-6.743,4.242-8.066,6.6-9.466.478-.284.974-.578,1.487-.913q2.054-1.332,4.081-2.706l-1.73-2.536q-2,1.356-4.027,2.67Zm76.282-25.4c.372-3.731-1.659-10.854-11.623-13.882a31.307,31.307,0,0,0-9.086-1.535,19.414,19.414,0,0,0-9.166,2.326c-.435.21-.846.408-1.233.576-3.074,1.328-8.22,3.553-10.164,3.76a4.5,4.5,0,0,0-4.323,4.07c-.1,1.007.036,3.468,3.466,4.547,1.866.586,6.473,3.781,9.225,5.69.346.24.709.515,1.094.806,2.55,1.929,6.04,4.572,13.822,4.572,1.23,0,2.548-.067,3.918-.2C118.2,133.074,122.147,127.647,122.581,123.285Zm-14.369,7.674q-1.805.18-3.621.186c-6.75,0-9.643-2.19-11.968-3.95q-.59-.453-1.2-.882c-4.08-2.83-7.92-5.425-10.054-6.1-1.419-.447-1.363-1.01-1.332-1.314.078-.783.6-1.215,1.594-1.321,2.224-.237,6.5-2.025,11.058-4,.445-.192.884-.4,1.348-.628a16.3,16.3,0,0,1,7.832-2.021,28.733,28.733,0,0,1,8.193,1.4c8.061,2.45,9.739,7.842,9.461,10.641-.116,1.16-1.2,7-11.313,7.978Z" transform="translate(-8.297 -33.016)" fill="#56878b"/>
    <path id="Path_25850" data-name="Path 25850" d="M132.029,119.671c-7.882-2.4-11.007-.887-13.764.444l1.334,2.765c2.47-1.192,4.8-2.318,11.537-.271a8.61,8.61,0,0,1,4.509,2.7l2.477-1.813a11.392,11.392,0,0,0-6.093-3.822ZM121.973,151.98q-.275-.621-.525-1.254c-1.414-3.5-3.349-8.3-12.978-12.859a19.2,19.2,0,0,0-8.184-2.027,12.143,12.143,0,0,0-9.753,4.486c-2.612,3.52-3.342,10.19,3.2,17.4,7.157,7.892,12.308,8.355,16.069,8.692.482.043.936.084,1.353.139,3.321.438,8.88,1.172,10.655,1.991a5.849,5.849,0,0,0,2.433.6,3.848,3.848,0,0,0,3.189-1.631,4.5,4.5,0,0,0-.463-5.92c-1.3-1.46-3.612-6.566-5-9.619Zm2.993,13.711a.809.809,0,0,1-.723.391,2.91,2.91,0,0,1-1.146-.314c-2.03-.938-6.617-1.6-11.54-2.249q-.738-.092-1.479-.153c-3.439-.309-7.719-.693-14.071-7.7-6.823-7.525-3.7-12.577-3.008-13.513a8.949,8.949,0,0,1,7.288-3.246,16.184,16.184,0,0,1,6.871,1.731c8.545,4.048,10.153,8.033,11.445,11.235.193.478.376.93.577,1.374,2.048,4.523,4.01,8.72,5.5,10.391.665.748.76,1.418.291,2.051Z" transform="translate(-31.137 -37.674)" fill="#56878b"/>
    <path id="Path_25851" data-name="Path 25851" d="M74.869,129.939a11.386,11.386,0,0,0-7.079-1.269l.615,3.008a8.6,8.6,0,0,1,5.15,1.035c6.361,3.014,7.331,5.416,8.358,7.959l2.846-1.149C83.612,136.684,82.313,133.466,74.869,129.939ZM59.294,116.692a4.5,4.5,0,0,0-1.167-5.822c-1.465-1.295-4.372-6.088-6.11-8.953-.218-.36-.438-.759-.671-1.182C49.524,97.427,47.028,92.9,36.923,89.52a20.619,20.619,0,0,0-6.5-1.144c-5.707,0-9.431,2.96-11.011,5.731-2.172,3.807-2.1,10.517,5.259,16.9,6.847,5.937,11.665,6.738,15.475,6.738.538,0,1.036-.015,1.518-.03.411-.012.8-.025,1.184-.025h.175c3.35.038,8.956.1,10.817.7a6.332,6.332,0,0,0,1.937.335,3.9,3.9,0,0,0,3.522-2.033Zm-2.666-1.521a.852.852,0,0,1-.855.484,3.313,3.313,0,0,1-.992-.185c-2.128-.688-6.761-.8-11.726-.852h-.21c-.409,0-.833.012-1.277.026-.459.014-.933.028-1.424.028h0c-3.244,0-7.38-.711-13.464-5.987C19,102.029,21.5,96.641,22.075,95.628c1.1-1.929,3.947-4.182,8.345-4.182a17.574,17.574,0,0,1,5.531.985c8.967,3,11.04,6.761,12.706,9.784.249.452.484.879.736,1.294,2.575,4.246,5.025,8.179,6.7,9.661.75.663.925,1.317.534,2Z" transform="translate(0 -24.404)" fill="#56878b"/>
    <path id="Path_25852" data-name="Path 25852" d="M42.847,99.807a11.382,11.382,0,0,0-7.18-.413l.97,2.912c.915-.305,2.566-.481,5.238.412,6.675,2.231,7.925,4.5,9.249,6.9l2.689-1.481c-1.478-2.681-3.152-5.721-10.965-8.333Zm102.83,21.539a11.384,11.384,0,0,0-7.135-2.35c-3.654,0-7.3,1.5-10.848,4.457-8.182,6.826-8.856,11.954-9.348,15.7-.063.478-.122.93-.2,1.351-.575,3.3-1.537,8.818-2.428,10.557a4.5,4.5,0,0,0,1.033,5.848,3.935,3.935,0,0,0,2.485.913,5.113,5.113,0,0,0,3.217-1.318c1.513-1.238,6.712-3.339,9.818-4.594q.632-.249,1.274-.473c3.558-1.268,8.429-3,13.384-12.436,4.529-8.621,2.154-14.9-1.256-17.651Zm-1.462,16.224c-4.4,8.37-8.443,9.813-11.7,10.972-.486.173-.945.337-1.394.518-4.6,1.861-8.88,3.648-10.611,5.064a2.3,2.3,0,0,1-1.273.625.85.85,0,0,1-.556-.23c-.612-.5-.688-1.168-.231-2.058,1.02-1.989,1.87-6.542,2.723-11.439q.122-.733.214-1.47c.45-3.423,1.01-7.683,8.272-13.741,2.977-2.484,5.965-3.744,8.881-3.744a8.379,8.379,0,0,1,5.206,1.668c.906.733,5.191,4.843.467,13.836Z" transform="translate(-7.732 -29.092)" fill="#56878b"/>
    <path id="Path_25853" data-name="Path 25853" d="M186.492,98.916c-6.325,5.277-6.778,8.717-7.178,11.754l3.043.4c.358-2.719.7-5.287,6.1-9.8,2.162-1.8,3.764-2.241,4.727-2.291l-.157-3.066A11.378,11.378,0,0,0,186.492,98.916Zm-19.235-32.2c2.162,2.558,5.779,6.839,6.541,8.639a4.557,4.557,0,0,0,4.24,3.05,4.71,4.71,0,0,0,.908-.089c.993-.2,3.31-1.039,3.349-4.634.021-1.955,1.745-7.289,2.776-10.478.129-.4.287-.828.455-1.28,1.311-3.542,3.1-8.393-.95-18.245-3.91-9.5-10.119-10.527-12.607-10.527a9.021,9.021,0,0,0-1.737.164c-3.679.725-9.909,4.73-9.924,15.144-.015,10.654,3.486,14.461,6.042,17.242.327.356.635.692.909,1.015Zm3.566-30.389a5.947,5.947,0,0,1,1.144-.106c1.87,0,6.564.84,9.767,8.625,3.6,8.744,2.108,12.774.91,16.012-.179.483-.348.94-.5,1.4-1.527,4.724-2.9,9.15-2.925,11.386-.016,1.487-.573,1.6-.871,1.655a1.639,1.639,0,0,1-.315.031c-.393,0-.967-.122-1.412-1.175-.871-2.06-3.819-5.633-7.026-9.428-.313-.37-.642-.728-.991-1.108-2.336-2.542-5.245-5.705-5.231-15.161C163.388,40.035,168.063,36.867,170.824,36.323Z" transform="translate(-62.806)" fill="#56878b"/>
    <path id="Path_25854" data-name="Path 25854" d="M137.559,66.174c-1.856-2.019-3.609-3.926-3.6-10.965a8.616,8.616,0,0,1,1.276-5.1l-2.452-1.846a11.383,11.383,0,0,0-1.894,6.938c-.011,8.238,2.338,10.793,4.41,13.047ZM91.379,82.7a19.567,19.567,0,0,0,9.035-2.529c9.424-4.968,11.154-9.842,12.417-13.4.162-.455.314-.885.471-1.276,1.251-3.108,3.344-8.309,4.58-9.824,2.272-2.786,1.035-4.917.4-5.7a4.333,4.333,0,0,0-3.41-1.662,5.325,5.325,0,0,0-2.44.638c-1.737.895-7.258,1.864-10.559,2.445-.414.073-.866.133-1.345.2-3.743.5-8.87,1.179-15.684,9.37-6.66,8.006-4.441,15.072-2.08,17.986A11.069,11.069,0,0,0,91.379,82.7ZM87.2,62.917c6.047-7.269,10.306-7.835,13.729-8.29.511-.068.993-.132,1.473-.217,4.89-.859,9.444-1.715,11.431-2.739a2.317,2.317,0,0,1,1.035-.3,1.314,1.314,0,0,1,1.024.525c.192.237.549.678-.391,1.83-1.414,1.733-3.195,6.011-5.049,10.618q-.273.692-.517,1.4c-1.154,3.254-2.591,7.3-10.955,11.712a16.572,16.572,0,0,1-7.6,2.175,7.846,7.846,0,0,1-6.233-2.623c-1.772-2.186-3.332-7.613,2.056-14.089Z" transform="translate(-27.506 -6.681)" fill="#56878b"/>
    <path id="Path_25855" data-name="Path 25855" d="M96.508,73.924c4.5-5.411,7.07-5.753,9.789-6.114l-.4-3.043c-3.035.4-6.475.861-11.743,7.194a11.383,11.383,0,0,0-2.99,6.541l3.066.153a8.614,8.614,0,0,1,2.284-4.731Z" transform="translate(-32.251 -13.972)" fill="#56878b"/>
  </g>
</svg>
